<?xml version="1.0" encoding="UTF-8"?>
<svg width="54px" height="52px" viewBox="0 0 54 52" version="1.1" xmlns="http://www.w3.org/2000/svg" xmlns:xlink="http://www.w3.org/1999/xlink">
    <!-- Generator: Sketch 44.1 (41455) - http://www.bohemiancoding.com/sketch -->
    <title>zaposlenici</title>
    <desc>Created with Sketch.</desc>
    <defs></defs>
    <g id="Page-1" stroke="none" stroke-width="1" fill="none" fill-rule="evenodd">
        <g id="zaposlenici" transform="translate(-4.000000, -6.000000)" fill="#FFFFFF">
            <path d="M49.447,43.894 C49.26,43.988 49.091,44.084 48.924,44.176 C47.165,45.154 45.645,46 31,46 C16.354,46 14.835,45.154 13.076,44.176 C12.909,44.084 12.74,43.988 12.553,43.894 C12.059,43.647 11.858,43.046 12.105,42.553 C12.353,42.059 12.953,41.86 13.447,42.105 C13.663,42.214 13.857,42.321 14.049,42.428 C15.502,43.236 16.874,44 31,44 C45.126,44 46.498,43.236 47.951,42.428 C48.143,42.321 48.337,42.214 48.553,42.105 C49.046,41.86 49.646,42.059 49.894,42.553 C50.142,43.046 49.941,43.647 49.447,43.894 L49.447,43.894 Z M56,38.185 L56,35 C56,24.921 51.656,17.086 44,13.033 L44,23 C44,23.553 43.553,24 43,24 C42.447,24 42,23.553 42,23 L42,12 C42,10.377 40.703,9.05 39.091,9.002 L36,8.486 L36,25.002 C36,25.554 35.553,26.002 35,26.002 C34.447,26.002 34,25.554 34,25.002 L34,8.152 L33.855,8.129 C33.479,6.901 32.35,6 31,6 C29.65,6 28.52,6.901 28.144,8.129 L28,8.152 L28,25.002 C28,25.554 27.553,26.002 27,26.002 C26.447,26.002 26,25.554 26,25.002 L26,8.486 L22.909,9.002 C21.297,9.05 20,10.377 20,12 L20,23 C20,23.553 19.553,24 19,24 C18.447,24 18,23.553 18,23 L18,13.033 C10.345,17.086 6,24.921 6,35 L6,38.185 C4.839,38.6 4,39.699 4,41.002 C4,41.197 4.059,41.391 4.167,41.555 C4.185,41.582 6,44.349 6,47 C6,49.892 7.702,52.469 10.553,53.894 C10.738,53.987 10.941,54.099 11.171,54.223 C13.423,55.449 18.109,58 31,58 C43.891,58 48.577,55.449 50.829,54.223 C51.059,54.099 51.262,53.987 51.447,53.894 C54.298,52.469 56,49.892 56,47 C56,44.349 57.814,41.582 57.833,41.555 C57.941,41.391 58,41.197 58,41.002 C58,39.699 57.161,38.6 56,38.185 L56,38.185 Z" id="Fill-205"></path>
        </g>
    </g>
</svg>