<?xml version="1.0" encoding="UTF-8"?>
<svg width="60px" height="57px" viewBox="0 0 60 57" version="1.1" xmlns="http://www.w3.org/2000/svg" xmlns:xlink="http://www.w3.org/1999/xlink">
    <!-- Generator: Sketch 44.1 (41455) - http://www.bohemiancoding.com/sketch -->
    <title>alat</title>
    <desc>Created with Sketch.</desc>
    <defs></defs>
    <g id="Page-1" stroke="none" stroke-width="1" fill="none" fill-rule="evenodd">
        <g id="alat" transform="translate(-2.000000, -4.000000)" fill="#FFFFFF">
            <path d="M31.88675,23 L2.72275,52.63 C1.75875,53.608 1.75975,55.198 2.72175,56.174 L6.23675,59.746 C6.70775,60.223 7.33475,60.486 8.00275,60.486 C8.67075,60.486 9.29775,60.223 9.76975,59.745 L38.93575,30.113 L31.88675,23" id="Fill-122"></path>
            <path d="M61.4247844,23.941 L59.3147844,21.798 C59.1367844,21.617 58.4177844,21.028 56.6377844,21.028 C56.2227844,21.028 55.7707844,21.06 55.2947844,21.125 C55.0337844,21.158 54.7707844,21.179 54.5067844,21.179 C53.5487844,21.179 52.8227844,20.914 52.2877844,20.37 C51.1187844,19.182 51.1187844,17.25 52.2877844,16.061 C52.6707844,15.673 52.6707844,15.048 52.2877844,14.659 L46.6657844,8.947 C43.4347844,5.664 39.0427844,4 33.6127844,4 C27.7447844,4 22.8287844,5.97 22.6227844,6.054 C22.2007844,6.226 21.9487844,6.661 22.0087844,7.113 C22.0687844,7.565 22.4277844,7.919 22.8807844,7.974 C22.9567844,7.982 30.5647844,8.964 35.4007844,14.633 C36.5697844,15.821 36.5697844,17.755 35.4007844,18.943 L33.2897844,21.088 L40.3397844,28.201 L42.4487844,26.058 C43.5707844,24.918 45.5217844,24.916 46.6457844,26.057 C47.4927844,26.918 47.5287844,28.172 47.4107844,29.073 C47.0337844,31.916 47.8067844,32.948 48.0517844,33.196 L50.1577844,35.337 C50.9127844,36.106 52.2377844,36.105 52.9897844,35.338 L61.4257844,26.772 C62.1917844,25.99 62.1907844,24.721 61.4247844,23.941" id="Fill-124"></path>
        </g>
    </g>
</svg>