<?xml version="1.0" encoding="UTF-8"?>
<svg width="56px" height="56px" viewBox="0 0 56 56" version="1.1" xmlns="http://www.w3.org/2000/svg" xmlns:xlink="http://www.w3.org/1999/xlink">
    <!-- Generator: Sketch 44.1 (41455) - http://www.bohemiancoding.com/sketch -->
    <title>stroj</title>
    <desc>Created with Sketch.</desc>
    <defs></defs>
    <g id="Page-1" stroke="none" stroke-width="1" fill="none" fill-rule="evenodd">
        <g id="stroj" transform="translate(-4.000000, -4.000000)" fill="#FFFFFF">
            <path d="M53.001,60 C52.921,60 52.839,59.99 52.758,59.97 C52.67,59.948 44,57.657 44,47 C44,46.447 44.447,46 45,46 C45.553,46 46,46.447 46,47 C46,56.114 53.17,58.012 53.242,58.03 C53.778,58.164 54.104,58.707 53.97,59.242 C53.856,59.697 53.449,60 53.001,60" id="Fill-1"></path>
            <path d="M39.504,40.136 L15.504,26.136 C15.351,26.047 15.177,26 15,26 L10,26 C7.794,26 6,27.795 6,30 L6,44 C6,46.206 7.794,48 10,48 L39,48 C39.553,48 40,47.552 40,47 L40,41 C40,40.645 39.811,40.316 39.504,40.136 L39.504,40.136 Z M15,42 L11,42 C10.447,42 10,41.552 10,41 C10,40.448 10.447,40 11,40 L15,40 C15.553,40 16,40.448 16,41 C16,41.552 15.553,42 15,42 L15,42 Z M15,38 L11,38 C10.447,38 10,37.552 10,37 C10,36.448 10.447,36 11,36 L15,36 C15.553,36 16,36.448 16,37 C16,37.552 15.553,38 15,38 L15,38 Z M15,34 L11,34 C10.447,34 10,33.552 10,33 C10,32.448 10.447,32 11,32 L15,32 C15.553,32 16,32.448 16,33 C16,33.552 15.553,34 15,34 L15,34 Z" id="Fill-2"></path>
            <path d="M48.535,5.464 C47.591,4.52 46.336,4 45,4 C43.664,4 42.409,4.52 41.465,5.464 L33.382,13.547 C34.229,15.291 36.102,18.773 37.613,21.527 C37.872,21.999 38,22.498 38,23 L38,23.071 L48.535,12.536 C50.484,10.586 50.484,7.414 48.535,5.464" id="Fill-121"></path>
            <path d="M51.902,42 C49.064,42 46.433,41.123 44.863,39.681 L43.177,39.984 C42.725,40.069 42.272,39.826 42.086,39.405 C41.898,38.984 42.024,38.489 42.391,38.208 L55.391,28.207 C55.812,27.884 56.409,27.945 56.756,28.346 L57.379,29.066 C59.189,31.11 60,33.622 60,36 C60,37.677 59.032,39.397 57.766,40.344 C56.337,41.412 54.255,42 51.902,42" id="Fill-123"></path>
            <path d="M39,50 L9,50 C6.243,50 4,52.243 4,55 C4,57.757 6.243,60 9,60 L39,60 C41.757,60 44,57.757 44,55 C44,52.243 41.757,50 39,50 L39,50 Z M16,55 C16,53.346 17.346,52 19,52 C20.654,52 22,53.346 22,55 C22,56.654 20.654,58 19,58 C17.346,58 16,56.654 16,55 L16,55 Z M26,55 C26,53.346 27.346,52 29,52 C30.654,52 32,53.346 32,55 C32,56.654 30.654,58 29,58 C27.346,58 26,56.654 26,55 L26,55 Z M6,55 C6,53.346 7.346,52 9,52 C10.654,52 12,53.346 12,55 C12,56.654 10.654,58 9,58 C7.346,58 6,56.654 6,55 L6,55 Z M39,58 C37.346,58 36,56.654 36,55 C36,53.346 37.346,52 39,52 C40.654,52 42,53.346 42,55 C42,56.654 40.654,58 39,58 L39,58 Z" id="Fill-157"></path>
            <path d="M51.282,12.07 C50.952,12.748 50.512,13.387 49.949,13.95 L45.508,18.391 L50.928,29.117 L54.171,26.622 C54.71,26.208 55.381,26.027 56.048,26.043 L51.282,12.07" id="Fill-158"></path>
            <path d="M15,24 C15.53,24 16.053,24.141 16.511,24.408 L36,35.777 L36,23 C36,22.832 35.957,22.666 35.876,22.518 C35.838,22.448 32.024,15.517 31.212,13.624 C30.254,11.386 29.048,10 26,10 L18,10 C15.794,10 14,11.794 14,14 L14,24 L15,24 L15,24 Z M18,15 C18,14.448 18.447,14 19,14 L26,14 C26.363,14 26.698,14.197 26.874,14.514 L31.874,23.514 C31.957,23.663 32,23.83 32,24 L32,29 C32,29.358 31.809,29.689 31.498,29.867 C31.344,29.956 31.172,30 31,30 C30.826,30 30.651,29.955 30.496,29.864 L18.496,22.864 C18.188,22.685 18,22.356 18,22 L18,15 L18,15 Z" id="Fill-182"></path>
        </g>
    </g>
</svg>