<?xml version="1.0" encoding="UTF-8"?>
<svg width="46px" height="60px" viewBox="0 0 46 60" version="1.1" xmlns="http://www.w3.org/2000/svg" xmlns:xlink="http://www.w3.org/1999/xlink">
    <!-- Generator: Sketch 44.1 (41455) - http://www.bohemiancoding.com/sketch -->
    <title>oprema</title>
    <desc>Created with Sketch.</desc>
    <defs></defs>
    <g id="Page-1" stroke="none" stroke-width="1" fill="none" fill-rule="evenodd">
        <g id="oprema" transform="translate(-8.000000, -2.000000)" fill="#FFFFFF">
            <path d="M53,8 C52.447,8 52,8.448 52,9 L52,10 L46,10 L46,16 L52,16 L52,17 C52,17.552 52.447,18 53,18 C53.553,18 54,17.552 54,17 L54,9 C54,8.448 53.553,8 53,8" id="Fill-30"></path>
            <path d="M16,10 L10,10 L10,9 C10,8.448 9.553,8 9,8 C8.447,8 8,8.448 8,9 L8,17 C8,17.552 8.447,18 9,18 C9.553,18 10,17.552 10,17 L10,16 L16,16 L16,10" id="Fill-31"></path>
            <path d="M36,17 C36,17.552 35.553,18 35,18 C34.447,18 34,17.552 34,17 L34,9 C34,8.448 34.447,8 35,8 C35.553,8 36,8.448 36,9 L36,17 L36,17 Z M32,17 C32,17.552 31.553,18 31,18 C30.447,18 30,17.552 30,17 L30,9 C30,8.448 30.447,8 31,8 C31.553,8 32,8.448 32,9 L32,17 L32,17 Z M28,17 C28,17.552 27.553,18 27,18 C26.447,18 26,17.552 26,17 L26,9 C26,8.448 26.447,8 27,8 C27.553,8 28,8.448 28,9 L28,17 L28,17 Z M40,2 L22,2 C19.794,2 18,3.794 18,6 L18,20 C18,22.206 19.794,24 22,24 C23.775,24 24,24.56 24,29 C24,30.654 25.346,32 27,32 L35,32 C36.654,32 38,30.654 38,29 C38,24.514 38.206,24 40,24 C42.206,24 44,22.206 44,20 L44,6 C44,3.794 42.206,2 40,2 L40,2 Z" id="Fill-32"></path>
            <path d="M26,34 L26,45 C26,45.552 26.447,46 27,46 L35,46 C35.553,46 36,45.552 36,45 L36,34 L26,34" id="Fill-33"></path>
            <path d="M28,48 L28,61 C28,61.552 28.447,62 29,62 L33,62 C33.553,62 34,61.552 34,61 L34,48 L28,48" id="Fill-34"></path>
            <path d="M39.00025,60.00025 C38.74425,60.00025 38.48825,59.90225 38.29325,59.70725 C37.90225,59.31625 37.90225,58.68425 38.29325,58.29325 L43.58625,53.00025 L42.29325,51.70725 C41.90225,51.31625 41.90225,50.68425 42.29325,50.29325 L48.29325,44.29325 C48.68425,43.90225 49.31625,43.90225 49.70725,44.29325 C50.09825,44.68425 50.09825,45.31625 49.70725,45.70725 L44.41425,51.00025 L45.70725,52.29325 C46.09825,52.68425 46.09825,53.31625 45.70725,53.70725 L39.70725,59.70725 C39.51225,59.90225 39.25625,60.00025 39.00025,60.00025" id="Fill-35"></path>
            <path d="M23.00025,60.00025 C22.74425,60.00025 22.48825,59.90225 22.29325,59.70725 L16.29325,53.70725 C15.90225,53.31625 15.90225,52.68425 16.29325,52.29325 L17.58625,51.00025 L12.29325,45.70725 C11.90225,45.31625 11.90225,44.68425 12.29325,44.29325 C12.68425,43.90225 13.31625,43.90225 13.70725,44.29325 L19.70725,50.29325 C20.09825,50.68425 20.09825,51.31625 19.70725,51.70725 L18.41425,53.00025 L23.70725,58.29325 C24.09825,58.68425 24.09825,59.31625 23.70725,59.70725 C23.51225,59.90225 23.25625,60.00025 23.00025,60.00025" id="Fill-36"></path>
        </g>
    </g>
</svg>