<?xml version="1.0" encoding="UTF-8"?>
<svg width="64px" height="40px" viewBox="0 0 64 40" version="1.1" xmlns="http://www.w3.org/2000/svg" xmlns:xlink="http://www.w3.org/1999/xlink">
    <!-- Generator: Sketch 44.1 (41455) - http://www.bohemiancoding.com/sketch -->
    <title>vozilo</title>
    <desc>Created with Sketch.</desc>
    <defs></defs>
    <g id="Page-1" stroke="none" stroke-width="1" fill="none" fill-rule="evenodd">
        <g id="vozilo" transform="translate(0.000000, -12.000000)" fill="#FFFFFF">
            <path d="M58.019,30 L58,30 L48,30 C47.692,30 47.401,29.858 47.212,29.615 C47.022,29.373 46.955,29.056 47.03,28.757 L49.03,20.757 C49.142,20.313 49.541,20 50,20 L56,20 C56.459,20 56.858,20.313 56.97,20.757 L58.924,28.571 C58.985,28.701 59.019,28.846 59.019,29 C59.019,29.552 58.572,30 58.019,30 L58.019,30 Z M63.962,30.725 L59.962,16.725 C59.839,16.296 59.446,16 59,16 L47,16 C46.554,16 46.161,16.296 46.038,16.725 L42.038,30.725 C42.013,30.815 42,30.907 42,31 L42,43 C42,36.935 46.935,32 53,32 C59.065,32 64,36.935 64,43 L64,31 C64,30.907 63.987,30.815 63.962,30.725 L63.962,30.725 Z" id="Fill-9"></path>
            <path d="M53,46 C51.346,46 50,44.654 50,43 C50,41.346 51.346,40 53,40 C54.654,40 56,41.346 56,43 C56,44.654 54.654,46 53,46 L53,46 Z M53,34 C48.037,34 44,38.038 44,43 C44,47.962 48.037,52 53,52 C57.963,52 62,47.962 62,43 C62,38.038 57.963,34 53,34 L53,34 Z" id="Fill-10"></path>
            <path d="M9,46 C7.346,46 6,44.654 6,43 C6,41.346 7.346,40 9,40 C10.654,40 12,41.346 12,43 C12,44.654 10.654,46 9,46 L9,46 Z M9,34 C4.037,34 0,38.038 0,43 C0,47.962 4.037,52 9,52 C13.963,52 18,47.962 18,43 C18,38.038 13.963,34 9,34 L9,34 Z" id="Fill-11"></path>
            <path d="M33.962,21.275 L29.962,35.275 C29.836,35.714 29.435,36 29.001,36 C28.909,36 28.817,35.988 28.726,35.961 C28.194,35.81 27.887,35.256 28.038,34.725 L32.038,20.725 C32.19,20.193 32.747,19.888 33.274,20.039 C33.806,20.19 34.113,20.744 33.962,21.275 L33.962,21.275 Z M25.96,21.28 L23.043,31.28 C22.916,31.717 22.517,32 22.083,32 C21.99,32 21.896,31.987 21.803,31.96 C21.272,31.805 20.969,31.25 21.123,30.72 L24.04,20.72 C24.194,20.191 24.743,19.882 25.28,20.04 C25.81,20.195 26.114,20.75 25.96,21.28 L25.96,21.28 Z M17.955,21.296 L15.788,28.296 C15.655,28.725 15.26,29 14.833,29 C14.735,29 14.636,28.986 14.537,28.955 C14.01,28.792 13.715,28.232 13.878,27.704 L16.045,20.704 C16.208,20.177 16.766,19.879 17.296,20.045 C17.823,20.208 18.118,20.768 17.955,21.296 L17.955,21.296 Z M9.946,21.322 L8.755,24.822 C8.613,25.238 8.225,25.5 7.809,25.5 C7.702,25.5 7.593,25.483 7.486,25.447 C6.964,25.269 6.684,24.701 6.862,24.178 L8.054,20.678 C8.231,20.155 8.802,19.877 9.322,20.053 C9.845,20.231 10.125,20.799 9.946,21.322 L9.946,21.322 Z M55,12 L44,12 C43.559,12 43.169,12.29 43.042,12.713 L42.056,16 L1,16 C0.447,16 0,16.448 0,17 L0,27 C0,27.387 0.224,27.74 0.574,27.905 L34.574,43.905 C34.709,43.968 34.854,44 35,44 C35.139,44 35.277,43.971 35.407,43.913 C35.673,43.794 35.874,43.566 35.958,43.287 L44.744,14 L55,14 C55.553,14 56,13.552 56,13 C56,12.448 55.553,12 55,12 L55,12 Z" id="Fill-12"></path>
        </g>
    </g>
</svg>